<?xml version="1.0" encoding="UTF-8"?>
<svg id="Layer_2" data-name="Layer 2" xmlns="http://www.w3.org/2000/svg" viewBox="0 0 1500 1500">
  <defs>
    <style>
      .cls-1 {
        fill: #fff;
      }
    </style>
  </defs>
  <g>
    <path class="cls-1" d="m972.7,728.89s32.5-17,26.5-43.5-80-45-80-45c82.5-46.5,55.5-106,55.5-106-6.5,9.5-25.5,21.25-25.5,21.25,0,0,11.5-26.75-22.5-23.25-28,15-60.5,7.5-60.5,7.5,64.99-17.37,99.95-39.65,100.49-39.99-12.17,16.67-19.46,19.53-20.78,19.94,4.26-1,69.22-16.97,67.28-61.95-2-46.5-57.5-145-221-147.5s-224,99-224,99c-16.5,51,3.5,80.5,7,89s8,31,23,34,47,35,47,35c-.67-.02-45.85-13.32-55-8.5-9.5,5-20.5,53.5-14.5,71.5s25.5,31.5,25.5,31.5c-8,2.5-10.5,1.5-29-10.5-24-2-35,21-38.5,37.5s37,41.5,37,41.5c0,0-34.5-2.5-44.5.5s-37,34.5-32,45.5,29-1,59,3.5,12,17.5,38,21,108-3,118-7.5,12-9,14.5,8.5c15.5,8,25.5-30.5,31-38s-22-14-22-14c0,0,11.5-1.5,37.5-4.5,20.5-1.5,41-28,63.5-27.5s37,15,48,23,40,14.5,40,14.5l-28.5-.5s8.5,13.5,29,26,101.5,15,101-17-50.5-35-50.5-35Zm-361.5-295c1.95-31.95,104.5-87.5,182.5-86.5s180,51,178,95-96,91.5-177.5,78.5c-49.5-11-74.5-11-74.5-11,0,0,12.3,10.86,25.65,13.18,0,0-18.95,4.68-37.8,0-18.85-4.68-32.85-13.68-32.85-13.68,0,0,18.5-.5,28-4,0,0-94-30.5-91.5-71.5Zm7.5,355.5c-18-6.5-19-20-19-20,0,0,26,15,57.5,17.5,0,0-20.5,9-38.5,2.5Zm218.5-167s-82.5,9-133,3.5-66-21.5-66-21.5c0,0,45.5,6,65,5.5s47-4.5,47-4.5c0,0-47.5-21.5-60-40,0,0,101,13,125.5,11,23.98-1.96,103.25-13.82,104.48-13.99-1.1.56-67.91,33.95-119.48,28.99-52-5-58-7-58-7,0,0,34,27.5,94.5,38Z"/>
    <path class="cls-1" d="m735.7,415.89c-32-8.5-75.23,14.42-73,39,1.5,16.5,19,25,49,35.5s62,6,62,6c0,0,4-4.33,6.55-16.53h0s1.45-9.47,1.45-9.47c2-19.5-14-46-46-54.5Zm-37.25,56c-8.42,0-15.25-6.83-15.25-15.25s6.83-15.25,15.25-15.25,15.25,6.83,15.25,15.25-6.83,15.25-15.25,15.25Zm55,13c-6.49,0-11.75-5.26-11.75-11.75s5.26-11.75,11.75-11.75,11.75,5.26,11.75,11.75-5.26,11.75-11.75,11.75Z"/>
    <path class="cls-1" d="m826.7,453.89s-12.5-6.5-27.5-2.5c-7.07,1.88-10.92,8.42-12.95,15.6,2.31-1.64,5.15-2.6,8.2-2.6,7.87,0,14.25,6.38,14.25,14.25s-6.38,14.25-14.25,14.25c-4.01,0-7.63-1.65-10.21-4.32.4,7.07-.06,11.12,30.96,20.82,32,10,51.5,1,51.2-12.04-.3-13.05-16.7-36.46-39.7-43.46Zm12,47c-5.24,0-9.5-4.26-9.5-9.5s4.26-9.5,9.5-9.5,9.5,4.26,9.5,9.5-4.26,9.5-9.5,9.5Z"/>
    <path class="cls-1" d="m832.2,730.89c-33.5-2-70.93,34.68-77.5,69.5-5,26.5,33.5,34.5,78.5,36.45,45.01,1.95,78-18.45,78.5-38.45s-46-65.5-79.5-67.5Zm-24.25,66.5c-10.36,0-18.75-8.4-18.75-18.75s8.39-18.75,18.75-18.75,18.75,8.4,18.75,18.75-8.39,18.75-18.75,18.75Zm61,7.5c-8.14,0-14.75-6.6-14.75-14.75s6.61-14.75,14.75-14.75,14.75,6.6,14.75,14.75-6.61,14.75-14.75,14.75Z"/>
    <path class="cls-1" d="m1019.2,589.39c-46,1-41,40.5-40,55.5s21,12.5,30.5,36-7,44-7,44c0,0,7-2.5,23.9,5.92,16.9,8.42,7.1,22.58,15.6,23.08s52-28,53.5-91-46.47-74.15-76.5-73.5Zm4.75,59.5c-10.63,0-19.25-8.62-19.25-19.25s8.62-19.25,19.25-19.25,19.25,8.62,19.25,19.25-8.62,19.25-19.25,19.25Zm40,35.5c-8.7,0-15.75-7.05-15.75-15.75s7.05-15.75,15.75-15.75,15.75,7.05,15.75,15.75-7.05,15.75-15.75,15.75Z"/>
    <path class="cls-1" d="m520.7,675.39c2-19.5,36.5-34.5,36-57.5s-22-19.5-45.5-38.5-65.35-16.26-89.5,18.5c-20.5,29.5-17.5,57.5-17,73s19.5,25.5,42.5,46.5,63,13,73,3-1.5-25.5.5-45Zm-76.75-3c-10.63,0-19.25-8.62-19.25-19.25s8.62-19.25,19.25-19.25,19.25,8.62,19.25,19.25-8.62,19.25-19.25,19.25Zm48.75-45c-7.73,0-14-6.27-14-14s6.27-14,14-14,14,6.27,14,14-6.27,14-14,14Z"/>
  </g>
  <g>
    <path class="cls-1" d="m194.6,1008.51c-2.97,0-5.55-.8-7.75-2.41-2.2-1.61-3.93-4.87-5.2-9.79-1.27-4.92-2.06-12.26-2.37-22.03l-1.76-66.61c-.31-10.33.56-18.2,2.6-23.61s5.29-9.11,9.74-11.09c4.45-1.98,10.17-2.97,17.16-2.97l9,.37c16.64.12,29.22,3.97,37.76,11.55,8.54,7.58,12.8,17.83,12.8,30.75,0,14.35-3.76,25.27-11.27,32.75-7.52,7.48-18.01,11.72-31.5,12.71l-1.58.19c-5.57.37-9.39,1.59-11.46,3.67-2.07,2.07-3.14,6.11-3.2,12.11l.56,13.82c-.06,8.23-1.36,13.72-3.9,16.47-2.54,2.75-5.75,4.13-9.65,4.13Zm36.79-107.11c-3.12-2.94-7.75-4.13-13.87-3.57l-.93.09c-3.96.31-6.62,1.38-7.98,3.2-1.36,1.82-2.04,5.3-2.04,10.44v3.99c0,5.81.77,9.66,2.32,11.55,1.54,1.89,3.86,2.95,6.96,3.2l1.02.09c6.43.43,11.24-.87,14.43-3.9,3.19-3.03,4.78-7.17,4.78-12.43s-1.56-9.73-4.68-12.66Z"/>
    <path class="cls-1" d="m341.21,1010.18c-8.04,0-15.37-1.19-21.99-3.57-6.62-2.38-12.29-6.31-17.02-11.78-4.73-5.47-8.38-12.86-10.95-22.17-2.57-9.31-3.85-20.92-3.85-34.84v-3.06c0-14.41,2.26-26.46,6.77-36.14,4.51-9.68,10.71-16.98,18.6-21.89,7.88-4.92,16.87-7.38,26.95-7.38,15.83,0,28.48,5.29,37.94,15.86s14.19,26.69,14.19,48.33v3.15c0,17.2-2.04,31.2-6.12,42.03-4.08,10.82-9.9,18.77-17.44,23.84-7.55,5.07-16.58,7.61-27.09,7.61Zm19.85-67.63c0-12.31-1.98-21.88-5.94-28.71-3.96-6.83-9-10.25-15.12-10.25-7.67,0-13.13,3.51-16.38,10.53-3.25,7.02-4.87,16.07-4.87,27.14v1.58c0,10.39,1.86,18.71,5.57,24.96,3.71,6.25,9.34,9.37,16.88,9.37s12.74-2.55,15.59-7.65c2.84-5.1,4.27-13.53,4.27-25.28v-1.67Z"/>
    <path class="cls-1" d="m464.91,987.73c-.19,14.91-4.86,22.36-14.01,22.36-5.26,0-8.91-1.69-10.95-5.06-2.04-3.37-2.97-8.64-2.78-15.82l2.13-79.32c.12-3.65-.48-6.2-1.81-7.65-1.33-1.45-3.67-2.18-7-2.18l-9.65.19c-4.39-.06-7.75-1.42-10.07-4.08-2.32-2.66-3.48-6.12-3.48-10.39,0-4.95,1.62-8.71,4.87-11.27,3.25-2.57,7.84-3.72,13.78-3.48l55.57,1.67c4.64.19,8.29,1.38,10.95,3.57,2.66,2.2,3.99,5.03,3.99,8.49s-.99,6.68-2.97,9.28c-1.98,2.6-5.29,4.11-9.93,4.55l-9.46.65c-2.85.25-4.89.99-6.12,2.23s-1.89,3.4-1.95,6.49l-1.11,79.79Z"/>
    <path class="cls-1" d="m603.27,981.88c3.34,10.33,3.73,17.6,1.16,21.8-2.57,4.21-6.7,6.31-12.39,6.31-7.42,0-12.46-4.64-15.12-13.92l-2.41-9.74c-.99-3.71-2.47-6.18-4.45-7.42-1.98-1.24-5.29-1.73-9.93-1.48l-7.98.46c-6,.25-10.24,1.13-12.71,2.64-2.47,1.52-4.39,4.68-5.75,9.51l-.56,2.23c-1.92,6.62-4.27,11.21-7.05,13.78-2.78,2.57-6.65,3.82-11.6,3.76-6.37-.12-10.58-2.91-12.62-8.35s-.9-14.53,3.43-27.28l25.05-77.28c3.59-10.58,7.25-17.73,10.99-21.48s8.08-5.61,13.03-5.61c3.9,0,7.16.74,9.79,2.23,2.63,1.48,4.99,4.19,7.1,8.12,2.1,3.93,4.3,9.51,6.59,16.75l25.42,84.98Zm-52.46-60.16c-.77.77-1.41,2.24-1.9,4.41l-4.17,17.26c-1.11,4.7-1.04,7.76.23,9.18,1.27,1.42,3.32,2.13,6.17,2.13h4.36c3.83,0,6.29-1.25,7.38-3.76,1.08-2.5.79-6.51-.88-12.01l-4.08-13.36c-.56-1.92-1.16-3.23-1.81-3.94-.65-.71-1.5-1.07-2.55-1.07s-1.96.39-2.74,1.16Z"/>
    <path class="cls-1" d="m668.42,987.73c-.19,14.91-4.86,22.36-14.01,22.36-5.26,0-8.91-1.69-10.95-5.06-2.04-3.37-2.97-8.64-2.78-15.82l2.13-79.32c.12-3.65-.48-6.2-1.81-7.65-1.33-1.45-3.67-2.18-7-2.18l-9.65.19c-4.39-.06-7.75-1.42-10.07-4.08-2.32-2.66-3.48-6.12-3.48-10.39,0-4.95,1.62-8.71,4.87-11.27,3.25-2.57,7.84-3.72,13.78-3.48l55.57,1.67c4.64.19,8.29,1.38,10.95,3.57,2.66,2.2,3.99,5.03,3.99,8.49s-.99,6.68-2.97,9.28c-1.98,2.6-5.29,4.11-9.93,4.55l-9.46.65c-2.85.25-4.89.99-6.12,2.23s-1.89,3.4-1.95,6.49l-1.11,79.79Z"/>
    <path class="cls-1" d="m769.02,1010.18c-8.04,0-15.37-1.19-21.99-3.57-6.62-2.38-12.29-6.31-17.02-11.78-4.73-5.47-8.38-12.86-10.95-22.17-2.57-9.31-3.85-20.92-3.85-34.84v-3.06c0-14.41,2.26-26.46,6.77-36.14,4.51-9.68,10.71-16.98,18.6-21.89,7.88-4.92,16.87-7.38,26.95-7.38,15.83,0,28.48,5.29,37.94,15.86s14.19,26.69,14.19,48.33v3.15c0,17.2-2.04,31.2-6.12,42.03-4.08,10.82-9.9,18.77-17.44,23.84-7.55,5.07-16.58,7.61-27.09,7.61Zm19.85-67.63c0-12.31-1.98-21.88-5.94-28.71-3.96-6.83-9-10.25-15.12-10.25-7.67,0-13.13,3.51-16.38,10.53-3.25,7.02-4.87,16.07-4.87,27.14v1.58c0,10.39,1.86,18.71,5.57,24.96,3.71,6.25,9.34,9.37,16.88,9.37s12.74-2.55,15.59-7.65c2.84-5.1,4.27-13.53,4.27-25.28v-1.67Z"/>
    <path class="cls-1" d="m900.72,931.92c-5.44-6.34-8.16-14.46-8.16-24.35,0-7.79,1.93-14.5,5.8-20.13,3.86-5.63,9.31-9.96,16.33-12.99,7.02-3.03,15.23-4.55,24.63-4.55,4.64,0,8.71.26,12.2.79s6.48,1.16,8.95,1.9c4.82,1.42,8.47,3.63,10.95,6.63,2.47,3,3.71,6.39,3.71,10.16,0,4.02-1.21,7.45-3.62,10.3-2.41,2.85-5.94,4.27-10.58,4.27-3.03,0-6.57-.85-10.62-2.55-4.05-1.7-8.67-2.55-13.87-2.55-3.34,0-6.16.83-8.44,2.5-2.29,1.67-3.43,4.17-3.43,7.51s1.08,6.08,3.25,8.4c2.16,2.32,5.97,4.75,11.41,7.28l3.06,1.39c8.35,3.71,14.97,7.62,19.85,11.74,4.88,4.11,8.38,8.67,10.48,13.68,2.1,5.01,3.15,10.76,3.15,17.26,0,7.92-1.95,14.98-5.84,21.2-3.9,6.21-9.5,11.12-16.79,14.7-7.3,3.59-16.05,5.38-26.25,5.38-4.64,0-8.98-.34-13.04-1.02-4.05-.68-7.41-1.42-10.07-2.23-5.13-1.61-8.72-3.76-10.76-6.45-2.04-2.69-3.06-6.2-3.06-10.53,0-3.46,1.24-6.6,3.71-9.42,2.47-2.81,6.25-4.22,11.32-4.22,3.96,0,7.33.26,10.11.79s5.38,1.07,7.79,1.62,4.95.83,7.61.83c8.1,0,12.15-3.56,12.15-10.67,0-3.83-1.13-6.99-3.39-9.46-2.26-2.47-6.14-5.07-11.64-7.79l-3.25-1.67c-10.33-5.5-18.22-11.43-23.66-17.77Z"/>
    <path class="cls-1" d="m1094.46,981.88c3.34,10.33,3.73,17.6,1.16,21.8-2.57,4.21-6.7,6.31-12.39,6.31-7.42,0-12.46-4.64-15.12-13.92l-2.41-9.74c-.99-3.71-2.47-6.18-4.45-7.42-1.98-1.24-5.29-1.73-9.93-1.48l-7.98.46c-6,.25-10.24,1.13-12.71,2.64-2.47,1.52-4.39,4.68-5.75,9.51l-.56,2.23c-1.92,6.62-4.27,11.21-7.05,13.78-2.78,2.57-6.65,3.82-11.6,3.76-6.37-.12-10.58-2.91-12.62-8.35s-.9-14.53,3.43-27.28l25.05-77.28c3.59-10.58,7.25-17.73,10.99-21.48s8.08-5.61,13.03-5.61c3.9,0,7.16.74,9.79,2.23,2.63,1.48,4.99,4.19,7.1,8.12,2.1,3.93,4.3,9.51,6.59,16.75l25.42,84.98Zm-52.46-60.16c-.77.77-1.41,2.24-1.9,4.41l-4.17,17.26c-1.11,4.7-1.04,7.76.23,9.18,1.27,1.42,3.32,2.13,6.17,2.13h4.36c3.83,0,6.29-1.25,7.38-3.76,1.08-2.5.79-6.51-.88-12.01l-4.08-13.36c-.56-1.92-1.16-3.23-1.81-3.94-.65-.71-1.5-1.07-2.55-1.07s-1.96.39-2.74,1.16Z"/>
    <path class="cls-1" d="m1113.33,944.59l-.28-7.33c-.74-16.45.93-29.76,5.01-39.94,4.08-10.17,10.34-17.59,18.79-22.27,8.44-4.67,18.79-7,31.03-7,8.6,0,16.1,1.99,22.5,5.98,6.4,3.99,11.38,9.59,14.94,16.79,3.56,7.21,5.33,15.63,5.33,25.28,0,6-1.18,10.75-3.53,14.24-2.35,3.5-6.19,5.24-11.5,5.24-4.7,0-8.24-1.41-10.62-4.22-2.38-2.81-3.91-7.28-4.59-13.41-.37-4.95-1.79-9.06-4.27-12.34-2.47-3.28-6.12-4.95-10.95-5.01-7.05-.12-12.45,2.83-16.19,8.86-3.74,6.03-5.65,15.32-5.71,27.88v5.75c-.06,12.12,1.61,21.08,5.01,26.86,3.4,5.78,8.47,8.92,15.21,9.42,4.45.25,8.24-1.16,11.36-4.22,3.12-3.06,5.18-7.1,6.17-12.11,1.11-5.38,2.83-9.08,5.15-11.09,2.32-2.01,5.15-3.02,8.49-3.02,5.26,0,9.09,1.67,11.5,5.01s3.74,7.83,3.99,13.45c.68,13.36-2.98,23.94-10.99,31.73s-19.13,11.69-33.35,11.69c-16.58-.06-29.19-5.24-37.85-15.54-8.66-10.3-13.54-27.2-14.66-50.7Z"/>
    <path class="cls-1" d="m1237.3,902.47c-.12-8.72.42-15.35,1.62-19.9,1.21-4.55,2.97-7.62,5.29-9.23,2.32-1.61,5.06-2.41,8.21-2.41,4.21,0,7.47,1.48,9.79,4.45,2.32,2.97,3.51,8.29,3.57,15.96l-.74,19.67c-.12,3.84.17,6.35.88,7.56.71,1.21,1.72,1.81,3.02,1.81,2.41,0,5.26-2.13,8.54-6.4,5.01-6.25,10.54-15.96,16.61-29.13,2.16-5.13,4.58-8.69,7.24-10.67,2.66-1.98,5.97-3,9.93-3.06,3.59-.06,6.62,1.01,9.09,3.2,2.47,2.2,3.71,5.4,3.71,9.6,0,3.71-.87,7.42-2.6,11.13-3.71,7.48-7.62,14.16-11.74,20.04-4.11,5.88-7.9,10.73-11.36,14.57-2.29,2.6-3.87,4.78-4.73,6.54-.87,1.76-1.3,3.63-1.3,5.61,0,1.73.31,3.46.93,5.2.62,1.73,1.82,3.99,3.62,6.77,2.54,3.96,5.8,8.07,9.79,12.34,3.99,4.27,8.92,8.88,14.8,13.82,3.71,3.46,6.22,6.36,7.51,8.67,1.3,2.32,1.95,4.93,1.95,7.84,0,3.22-1.15,6.05-3.43,8.49-2.29,2.44-5.51,3.67-9.65,3.67-3.15,0-5.89-.6-8.21-1.81-2.32-1.21-4.62-2.92-6.91-5.15-6.19-5.32-11.13-10.31-14.84-14.98s-7.08-9.35-10.11-14.06c-1.79-2.91-3.15-4.81-4.08-5.71-.93-.9-1.92-1.34-2.97-1.34-1.3,0-2.35.6-3.15,1.81-.8,1.21-1.27,3.51-1.39,6.91l-.65,16.88c-.12,6.93-1.25,11.72-3.39,14.38-2.13,2.66-5.12,3.99-8.95,3.99-2.78,0-5.23-.79-7.33-2.37-2.1-1.58-3.77-4.54-5.01-8.91-1.24-4.36-1.95-10.68-2.13-18.97l-1.39-76.82Z"/>
  </g>
  <g>
    <path class="cls-1" d="m1190,1067.66H310c-2.76,0-5-2.24-5-5s2.24-5,5-5h880c2.76,0,5,2.24,5,5s-2.24,5-5,5Z"/>
    <circle class="cls-1" cx="292" cy="1062.66" r="5"/>
    <circle class="cls-1" cx="1208" cy="1062.66" r="5"/>
  </g>
  <g>
    <path class="cls-1" d="m600.36,1146.62v-6.64c0-7.68,1.17-13.92,3.52-18.73,2.34-4.8,5.59-8.33,9.74-10.6,4.15-2.26,8.89-3.39,14.23-3.39,4.3,0,8.11.69,11.43,2.08,3.32,1.38,5.96,3.26,7.91,5.62,1.95,2.36,2.99,5.04,3.12,8.03.06,2.25-.54,4.19-1.81,5.83-1.27,1.64-3.06,2.47-5.37,2.47-2.51,0-4.54-1.2-6.1-3.61-.94-1.63-2.14-2.85-3.59-3.66-1.45-.81-3.36-1.22-5.74-1.22-3.48,0-6.24,1.3-8.28,3.91-2.04,2.6-3.05,7.23-3.05,13.87v5.42c0,6.74.95,11.59,2.86,14.55,1.9,2.96,4.73,4.44,8.47,4.44,5.92,0,8.89-3.37,8.89-10.11v-2.64h-3.86c-2.15,0-3.84-.56-5.08-1.68-1.24-1.12-1.86-2.74-1.86-4.86,0-4.39,2.51-6.59,7.52-6.59h9.18c5.6,0,8.4,2.88,8.4,8.64v5.32c0,8.79-1.99,15.37-5.96,19.73-3.97,4.36-9.81,6.54-17.53,6.54-8.24,0-14.8-2.71-19.7-8.13-4.9-5.42-7.35-13.61-7.35-24.58Z"/>
    <path class="cls-1" d="m677.18,1117.76c1.01-3.61,2.48-6.18,4.42-7.69,1.94-1.51,4.43-2.27,7.5-2.27s5.51.74,7.45,2.22c1.94,1.48,3.41,4.06,4.42,7.74l14.36,49.37c1.04,3.61.85,6.46-.56,8.54-1.42,2.08-3.82,3.12-7.2,3.12-2.28,0-4.06-.63-5.35-1.88-1.29-1.25-2.19-2.97-2.71-5.15l-2.05-7.47h-17.04l-2.1,7.47c-.52,2.15-1.39,3.86-2.61,5.13s-2.95,1.9-5.2,1.9c-3.32,0-5.69-1.04-7.1-3.12-1.42-2.08-1.62-4.93-.61-8.54l14.4-49.37Zm17.38,33.79l-5.66-21.34-5.62,21.34h11.28Z"/>
    <path class="cls-1" d="m730.32,1118.93c0-4,.85-6.86,2.56-8.57s4.06-2.56,7.06-2.56c2.64,0,4.87.77,6.71,2.32,1.84,1.55,3.34,4.39,4.52,8.52l8.89,25.29,8.84-25.29c1.2-4.17,2.73-7.01,4.57-8.54,1.84-1.53,4.06-2.29,6.67-2.29,3.03,0,5.4.85,7.1,2.56s2.56,4.58,2.56,8.62v51.27c0,3.03-.68,5.21-2.03,6.54-1.35,1.33-3.15,2-5.4,2s-4.07-.65-5.47-1.95c-1.4-1.3-2.1-3.48-2.1-6.54v-33.74l-8.2,23.49c-.62,2.08-1.42,3.69-2.42,4.81-.99,1.12-2.37,1.68-4.13,1.68s-3.08-.55-4.05-1.66c-.98-1.11-1.79-2.72-2.44-4.83l-8.3-23.34v33.59c0,3.06-.7,5.24-2.1,6.54-1.4,1.3-3.22,1.95-5.47,1.95s-4-.67-5.35-2c-1.35-1.33-2.03-3.52-2.03-6.54v-51.32Z"/>
    <path class="cls-1" d="m806.95,1117.67c0-3.38.71-5.79,2.12-7.23,1.42-1.43,3.43-2.15,6.03-2.15h21.83c5.6,0,8.4,2.46,8.4,7.37s-2.8,7.32-8.4,7.32h-14.4v12.84h11.67c5.04,0,7.57,2.2,7.57,6.59s-2.52,6.59-7.57,6.59h-11.67v14.6h14.5c5.57,0,8.35,2.44,8.35,7.32s-2.78,7.37-8.35,7.37h-22.02c-2.57,0-4.56-.71-5.96-2.12-1.4-1.42-2.1-3.82-2.1-7.2v-51.32Z"/>
    <path class="cls-1" d="m894.51,1173.74c-4.26,3.73-10.38,5.59-18.36,5.59-2.47,0-4.79-.19-6.93-.56-2.15-.38-4.04-.87-5.66-1.49-3.91-1.63-5.86-4.13-5.86-7.52,0-1.92.54-3.56,1.64-4.91,1.09-1.35,2.73-2.03,4.91-2.03,1.53,0,3.34.33,5.44.98,2.1.65,4.5.98,7.2.98,5.53,0,8.3-2.12,8.3-6.35,0-1.76-.46-3.18-1.37-4.27-.91-1.09-2.57-2.22-4.98-3.39l-4.83-2.29c-5.21-2.6-9.15-5.7-11.82-9.3-2.67-3.6-4-7.75-4-12.48,0-6.25,2.17-11.05,6.52-14.4,4.35-3.35,10.21-5.03,17.6-5.03,2.38,0,4.48.16,6.3.49,1.82.33,3.48.77,4.98,1.32,4.04,1.5,6.05,3.97,6.05,7.42,0,1.92-.53,3.56-1.59,4.91-1.06,1.35-2.66,2.03-4.81,2.03-1.17,0-2.26-.15-3.27-.46-1.01-.31-2.15-.62-3.42-.93-1.27-.31-2.88-.46-4.83-.46-5.18,0-7.76,1.89-7.76,5.66,0,1.4.45,2.71,1.34,3.93.89,1.22,2.5,2.4,4.81,3.54l4.98,2.49c5.34,2.73,9.31,5.73,11.91,8.98,2.6,3.26,3.91,7.34,3.91,12.26,0,6.48-2.13,11.58-6.4,15.31Z"/>
  </g>
</svg>